HIERARCHY
ROOT Pelvis
{
	OFFSET 0.000000 0.000000 0.000000
	CHANNELS 6 Xposition Yposition Zposition Xrotation Yrotation Zrotation
	JOINT LeftUpLeg_virtual
	{
		OFFSET 0.000000 0.000000 0.000000
		CHANNELS 3 Xrotation Yrotation Zrotation
		JOINT LeftUpLeg
		{
			OFFSET 18.735201 -5.666702 -4.541200
			CHANNELS 3 Xrotation Yrotation Zrotation
			JOINT LeftLeg
			{
				OFFSET -0.021200 -31.938179 0.493100
				CHANNELS 3 Xrotation Yrotation Zrotation
				JOINT LeftFoot
				{
					OFFSET 0.021200 -31.938179 -4.336299
					CHANNELS 3 Xrotation Yrotation Zrotation
					JOINT LeftToeBase
					{
						OFFSET 0.943001 -26.722000 15.023500
						CHANNELS 3 Xrotation Yrotation Zrotation
						End Site
						{
							OFFSET 0 0 0
						}
					}
				}
			}
		}
	}
	JOINT RightUpLeg_virtual
	{
		OFFSET 0.000000 0.000000 0.000000
		CHANNELS 3 Xrotation Yrotation Zrotation
		JOINT RightUpLeg
		{
			OFFSET -18.735201 -5.666702 -4.541200
			CHANNELS 3 Xrotation Yrotation Zrotation
			JOINT RightLeg
			{
				OFFSET 0.018946 -31.938133 0.493100
				CHANNELS 3 Xrotation Yrotation Zrotation
				JOINT RightFoot
				{
					OFFSET -0.018946 -31.938126 -4.336299
					CHANNELS 3 Xrotation Yrotation Zrotation
					JOINT RightToeBase
					{
						OFFSET -0.943001 -26.722004 15.023500
						CHANNELS 3 Xrotation Yrotation Zrotation
						End Site
						{
							OFFSET 0 0 0
						}
					}
				}
			}
		}
	}
	JOINT Hips_virtual
	{
		OFFSET 0.000000 0.000000 0.000000
		CHANNELS 3 Xrotation Yrotation Zrotation
		JOINT Hips
		{
			OFFSET -0.000000 -0.000000 -0.000000
			CHANNELS 3 Xrotation Yrotation Zrotation
			JOINT Spine
			{
				OFFSET 0.000000 10.199997 -0.299500
				CHANNELS 3 Xrotation Yrotation Zrotation
				JOINT Spine1
				{
					OFFSET 0.000000 11.900002 -1.516600
					CHANNELS 3 Xrotation Yrotation Zrotation
					JOINT Spine2
					{
						OFFSET 0.000000 13.600006 -2.842500
						CHANNELS 3 Xrotation Yrotation Zrotation
						JOINT Neck_virtual
						{
							OFFSET 0.000000 0.000000 0.000000
							CHANNELS 3 Xrotation Yrotation Zrotation
							JOINT Neck
							{
								OFFSET 0.000000 9.624100 -2.890100
								CHANNELS 3 Xrotation Yrotation Zrotation
								JOINT Head
								{
									OFFSET 0.000000 14.068802 -1.351900
									CHANNELS 3 Xrotation Yrotation Zrotation
									End Site
									{
										OFFSET 0 0 0
									}
								}
							}
						}
						JOINT LeftShoulder_virtual
						{
							OFFSET 0.000000 0.000000 0.000000
							CHANNELS 3 Xrotation Yrotation Zrotation
							JOINT LeftShoulder
							{
								OFFSET 15.263000 10.923401 -0.547700
								CHANNELS 3 Xrotation Yrotation Zrotation
								JOINT LeftArm
								{
									OFFSET 25.438599 -2.830597 -13.032500
									CHANNELS 3 Xrotation Yrotation Zrotation
									JOINT LeftForeArm
									{
										OFFSET 29.960503 0.000000 0.000000
										CHANNELS 3 Xrotation Yrotation Zrotation
										JOINT LeftHand
										{
											OFFSET 27.849251 0.000000 0.000000
											CHANNELS 3 Xrotation Yrotation Zrotation
											End Site
											{
												OFFSET 0 0 0
											}
										}
									}
								}
							}
						}
						JOINT RightShoulder_virtual
						{
							OFFSET 0.000000 0.000000 0.000000
							CHANNELS 3 Xrotation Yrotation Zrotation
							JOINT RightShoulder
							{
								OFFSET -15.263000 10.923401 -0.547700
								CHANNELS 3 Xrotation Yrotation Zrotation
								JOINT RightArm
								{
									OFFSET -25.438599 -2.830597 -13.032500
									CHANNELS 3 Xrotation Yrotation Zrotation
									JOINT RightForeArm
									{
										OFFSET -29.960503 0.000000 0.000000
										CHANNELS 3 Xrotation Yrotation Zrotation
										JOINT RightHand
										{
											OFFSET -27.849251 0.000000 0.000000
											CHANNELS 3 Xrotation Yrotation Zrotation
											End Site
											{
												OFFSET 0 0 0
											}
										}
									}
								}
							}
						}
					}
				}
			}
		}
	}
}
MOTION
Frames: 12
Frame Time: 0.03333333
-4.396465 91.705734 12.718727 0.000000 0.000000 0.000000 -6.109101 -37.093026 -5.017533 -21.511595 6.535300 21.285825 36.546239 5.582933 -9.174133 -1.061414 -4.848258 0.486387 0.000000 0.000000 0.000000 -6.206100 -35.781817 -4.389312 -9.075208 4.049357 -14.527717 22.996839 3.242453 0.327995 -3.855428 13.882285 15.554067 0.000000 0.000000 0.000000 -5.920852 -34.482531 -4.066419 -0.857003 0.072713 -0.129502 5.514430 7.184507 -1.701609 3.840616 -0.596345 4.208389 0.000000 0.000000 0.000000 2.753971 -0.497552 4.053298 -0.484724 2.510120 -0.266838 0.000000 0.000000 0.000000 4.017959 -0.410060 4.352431 -5.330856 -13.511280 -6.180429 -54.853167 -12.657104 -44.420620 -0.603876 -55.475937 5.145440 0.000000 0.000000 0.000000 1.715923 0.158974 4.154372 6.551869 23.418682 2.702130 18.385669 -15.463784 87.805620 37.421951 14.583361 -40.007300 0.000000 0.000000 0.000000 
-4.535181 91.542145 13.205975 0.000000 0.000000 0.000000 -6.037442 -35.574405 -4.872383 -23.245282 6.240449 21.951164 38.712051 5.193736 -9.544749 0.782184 -5.402129 1.292902 0.000000 0.000000 0.000000 -5.958795 -34.322715 -4.269137 -7.714319 3.699449 -14.324076 21.590370 3.269039 0.226880 -3.759261 13.327005 15.935610 0.000000 0.000000 0.000000 -5.626517 -32.406830 -3.801872 -0.926001 0.172408 -0.137102 5.466887 7.722165 -1.390638 3.537444 0.013173 4.058941 0.000000 0.000000 0.000000 2.711918 -0.089407 3.988077 -0.424120 2.564559 -0.389198 0.000000 0.000000 0.000000 3.982869 0.094231 4.305432 -5.270105 -12.355769 -6.256324 -55.297406 -9.666751 -43.622649 -0.734154 -57.735801 4.657646 0.000000 0.000000 0.000000 2.268415 0.666243 4.122225 6.210408 22.343012 2.774704 19.361068 -15.551758 87.013796 37.696695 15.094132 -39.820338 0.000000 0.000000 0.000000 
-4.870267 91.340836 13.555546 0.000000 0.000000 0.000000 -5.619581 -32.218436 -4.205282 -25.721702 5.438021 21.970743 40.578045 4.773907 -10.174497 3.878097 -5.506431 2.405362 0.000000 0.000000 0.000000 -5.510792 -31.173246 -3.657792 -5.897891 2.433351 -14.084967 21.474646 1.991731 -0.175225 -5.244033 10.859316 14.877721 0.000000 0.000000 0.000000 -5.014650 -28.921005 -3.119299 -0.963003 0.203526 -0.117913 5.383128 8.307556 -1.223798 3.252576 0.899937 3.707250 0.000000 0.000000 0.000000 2.845108 0.707170 3.700480 -0.075038 2.363845 -0.377545 0.000000 0.000000 0.000000 3.828958 0.880297 3.881182 -4.960331 -10.659159 -6.443510 -57.090590 -4.640434 -42.567604 -0.974654 -62.620417 3.744814 0.000000 0.000000 0.000000 2.928170 1.554447 3.899958 5.729269 21.312338 3.090132 21.199673 -15.159900 85.768379 37.867423 16.399621 -39.513505 0.000000 0.000000 0.000000 
-5.319808 91.156845 13.817192 0.000000 0.000000 0.000000 -4.985852 -27.276683 -3.264969 -28.489870 4.163585 21.058467 41.591501 4.542066 -10.886942 7.105302 -5.069683 3.819659 0.000000 0.000000 0.000000 -5.010375 -26.354795 -2.845838 -3.397873 0.017775 -13.794283 21.860377 -0.563166 -0.706141 -8.619537 6.846812 12.587777 0.000000 0.000000 0.000000 -4.356557 -24.332535 -2.310046 -0.966013 0.173804 -0.091519 5.193459 8.839259 -1.211676 3.114457 1.950175 3.159326 0.000000 0.000000 0.000000 3.108232 1.769113 3.207194 0.509375 1.943898 -0.229061 0.000000 0.000000 0.000000 3.560424 1.872549 3.133555 -4.486640 -8.910886 -6.753119 -59.749313 0.708667 -41.052289 -1.843438 -68.464437 1.949279 0.000000 0.000000 0.000000 3.612563 2.751130 3.472403 5.159827 20.598604 3.797628 23.163989 -14.403167 84.202613 37.728616 18.131229 -39.023391 0.000000 0.000000 0.000000 
-5.751352 90.916252 14.097637 0.000000 0.000000 0.000000 -4.218473 -21.167029 -2.322971 -30.700150 2.245083 19.014094 40.898346 4.447523 -11.408922 9.237047 -4.603488 4.998858 0.000000 0.000000 0.000000 -4.618456 -20.254012 -2.100134 -0.019373 -3.005026 -13.094675 21.798067 -3.487566 -1.200133 -11.824206 2.731931 10.666671 0.000000 0.000000 0.000000 -3.839236 -18.935977 -1.673213 -0.946200 0.140576 -0.058822 4.711766 9.296167 -1.202268 3.108161 3.147178 2.416289 0.000000 0.000000 0.000000 3.360458 3.014182 2.531373 1.251381 1.386527 0.046944 0.000000 0.000000 0.000000 3.234414 2.984638 2.176765 -3.867455 -7.215246 -7.023034 -62.360734 5.140224 -39.014061 -3.224374 -74.200211 -0.665294 0.000000 0.000000 0.000000 4.231946 4.134973 2.807262 4.545705 20.251555 4.670053 24.467269 -13.545060 82.173364 37.251322 19.730883 -38.221073 0.000000 0.000000 0.000000 
-6.126732 90.675423 14.401493 0.000000 0.000000 0.000000 -3.499973 -14.404485 -1.650022 -31.693119 -0.430731 15.995584 37.993231 4.446008 -11.626003 10.603402 -4.571239 5.410389 0.000000 0.000000 0.000000 -4.317153 -13.348406 -1.580712 3.862816 -5.941209 -11.737338 20.754728 -5.961835 -1.593843 -12.958074 -0.385785 10.678314 0.000000 0.000000 0.000000 -3.637552 -12.889632 -1.387702 -0.933909 0.128524 -0.025098 3.798459 9.625921 -0.885136 3.162599 4.451466 1.518718 0.000000 0.000000 0.000000 3.464316 4.346892 1.693230 2.063901 0.771637 0.410860 0.000000 0.000000 0.000000 2.896041 4.176364 1.152041 -3.139232 -5.544240 -7.234793 -63.803249 8.109584 -37.011941 -4.794480 -79.078919 -3.726152 0.000000 0.000000 0.000000 4.803229 5.537470 1.908396 4.008828 20.120580 5.374445 24.687910 -12.888111 79.605930 36.439254 20.883899 -37.141633 0.000000 0.000000 0.000000 
-6.367624 90.402939 14.768711 0.000000 0.000000 0.000000 -3.102574 -7.346878 -1.358865 -31.684571 -3.695431 12.498100 33.471154 4.600272 -11.556152 12.138306 -4.903764 5.173412 0.000000 0.000000 0.000000 -4.245120 -6.066589 -1.357134 7.632666 -8.596642 -10.021444 19.249968 -7.743752 -1.783516 -11.701139 -2.406188 12.229506 0.000000 0.000000 0.000000 -3.765536 -6.503497 -1.407915 -0.934012 0.143507 0.009979 2.479587 9.789018 -0.053837 3.197461 5.813787 0.476529 0.000000 0.000000 0.000000 3.443389 5.693200 0.724924 2.830062 0.177173 0.812936 0.000000 0.000000 0.000000 2.553508 5.450808 0.193289 -2.407112 -3.842749 -7.311237 -63.737577 9.863968 -35.351044 -6.315972 -83.003778 -6.808254 0.000000 0.000000 0.000000 5.278029 6.876122 0.818506 3.591904 20.026977 5.862710 23.901183 -12.199490 76.698728 35.389556 21.565672 -36.018415 0.000000 0.000000 0.000000 
-6.417413 90.053986 15.181938 0.000000 0.000000 0.000000 -3.213081 -0.362877 -1.426236 -31.073324 -7.415239 8.835089 28.504531 4.850142 -11.185189 14.101710 -5.374120 4.811114 0.000000 0.000000 0.000000 -4.466836 1.024986 -1.337955 10.704050 -10.867154 -8.155343 18.284389 -8.979229 -1.709898 -8.718675 -3.601868 13.776766 0.000000 0.000000 0.000000 -4.153862 -0.056442 -1.602026 -0.953529 0.157623 0.057329 0.879882 9.769248 1.404251 3.231145 7.211326 -0.661415 0.000000 0.000000 0.000000 3.311789 6.986506 -0.256785 3.463460 -0.350472 1.209003 0.000000 0.000000 0.000000 2.213729 6.750624 -0.603790 -1.737718 -2.030052 -7.153127 -62.579115 11.121434 -34.138218 -3.563418 -86.057023 -5.609712 0.000000 0.000000 0.000000 5.592798 8.074432 -0.349404 3.300432 19.885059 6.070476 22.804636 -11.302835 73.751269 34.425700 22.150686 -35.115095 0.000000 0.000000 0.000000 
-6.276918 89.740547 15.655041 0.000000 0.000000 0.000000 -3.715353 6.298846 -1.631730 -30.186065 -11.592459 5.085363 24.104955 4.824510 -10.430456 16.421991 -6.040891 4.582927 0.000000 0.000000 0.000000 -5.042052 7.604652 -1.426007 12.747471 -12.606028 -6.530390 18.347867 -10.026789 -1.341188 -4.565335 -4.392385 13.880297 0.000000 0.000000 0.000000 -4.701235 6.189048 -1.837726 -0.957710 0.158166 0.101648 -0.858316 9.607775 3.354593 3.408271 8.521440 -1.791667 0.000000 0.000000 0.000000 3.204371 8.136562 -1.153658 3.864335 -0.823869 1.589686 0.000000 0.000000 0.000000 1.963186 8.004724 -1.217399 -1.252184 -0.107626 -6.793254 -61.463083 12.483310 -33.155845 12.604767 -87.557677 9.329938 0.000000 0.000000 0.000000 5.806603 9.109772 -1.495090 3.116284 19.729309 5.994406 22.396802 -10.371806 70.723392 33.898031 23.342071 -34.780887 0.000000 0.000000 0.000000 
-5.954877 89.612839 16.212017 0.000000 0.000000 0.000000 -4.498339 12.446570 -1.708674 -29.150568 -16.021981 1.483226 20.587035 4.309694 -9.332828 18.437703 -7.090943 4.547508 0.000000 0.000000 0.000000 -5.919046 13.631635 -1.413722 13.641272 -13.656048 -5.476701 19.693865 -10.766043 -0.766580 0.901788 -4.841118 12.635059 0.000000 0.000000 0.000000 -5.405798 11.971633 -1.995318 -0.937675 0.167183 0.117505 -2.537723 9.390662 5.423295 3.729989 9.646144 -2.845805 0.000000 0.000000 0.000000 3.199130 9.116873 -1.930806 3.947139 -1.268233 1.962163 0.000000 0.000000 0.000000 1.903313 9.126996 -1.648171 -1.079911 1.845497 -6.299698 -61.943983 13.723963 -31.929915 32.086559 -87.445874 28.141696 0.000000 0.000000 0.000000 6.045369 9.962638 -2.554063 2.974908 19.517877 5.713931 23.344069 -10.167432 67.210004 34.493739 26.278559 -35.539230 0.000000 0.000000 0.000000 
-5.530207 89.839462 16.907370 0.000000 0.000000 0.000000 -5.324228 17.808964 -1.518751 -27.910033 -20.274706 -1.643157 17.796835 3.227877 -8.080653 19.332758 -8.963088 4.408894 0.000000 0.000000 0.000000 -6.860758 18.933032 -1.164632 13.484388 -13.635743 -4.986631 21.373421 -10.451409 -0.244194 7.902953 -4.012457 11.608781 0.000000 0.000000 0.000000 -6.209109 17.272922 -1.937962 -0.882052 0.156609 0.100517 -3.965631 9.153697 7.234825 4.091258 10.486806 -3.712243 0.000000 0.000000 0.000000 3.295377 9.919240 -2.534472 3.689226 -1.672959 2.326647 0.000000 0.000000 0.000000 2.021799 10.030439 -1.858061 -1.307799 3.753672 -5.738973 -64.472778 14.416504 -30.367653 43.574852 -86.981564 39.478138 0.000000 0.000000 0.000000 6.395601 10.608242 -3.471995 2.844123 19.141387 5.124139 24.935475 -11.134811 62.710617 36.409256 31.059742 -37.620870 0.000000 0.000000 0.000000 
-5.017202 90.410713 17.593863 0.000000 0.000000 0.000000 -6.031755 21.891470 -1.069596 -26.587198 -23.584256 -4.013365 15.747877 1.694712 -6.924021 19.273539 -11.520348 4.129664 0.000000 0.000000 0.000000 -7.743752 22.937630 -0.668731 13.058743 -12.963761 -5.003078 22.021884 -8.846785 0.245991 15.233180 -1.366729 11.653940 0.000000 0.000000 0.000000 -6.957572 21.368047 -1.591205 -0.832145 0.120899 0.075570 -5.028508 8.949710 8.535825 4.430033 11.014168 -4.345500 0.000000 0.000000 0.000000 3.555021 10.518609 -2.928021 3.147038 -2.027470 2.655987 0.000000 0.000000 0.000000 2.299375 10.666942 -1.870597 -1.955288 5.443676 -5.311035 -68.116568 14.310395 -28.909858 81.918973 -87.606738 77.990754 0.000000 0.000000 0.000000 6.762528 11.064036 -4.196269 2.678203 18.586890 4.256159 25.686041 -12.913390 57.237655 39.503161 36.832184 -40.955242 0.000000 0.000000 0.000000 
